# xmcd
#
# Track frame offsets:
#	150
#	13442
#	34192
#	49217
#
# Disc length: 795 seconds
#
# Revision: 0
# Processed by: cddbd v1.5.2PL0 Copyright (c) Steve Scherf et al.
# Submitted via: dBpowerAMP V4.0
#
DISCID=32031904
DTITLE=Family Gotown - Turtle EP
DYEAR=1992
DGENRE=Indie Rock
TTITLE0=Turtle
TTITLE1=Pick Me Up (Carry On)
TTITLE2=Cheat Me
TTITLE3=Pretty Things
EXTD=
EXTT0=
EXTT1=
EXTT2=
EXTT3=
PLAYORDER=
